<svg width="304" height="65" viewBox="0 0 304 65" fill="none" xmlns="http://www.w3.org/2000/svg">
<path d="M72.4972 61L72.4972 48.6364L79.9588 48.6364L79.9588 49.9645L73.9943 49.9645L73.9943 54.142L79.5724 54.142L79.5724 55.4702L73.9943 55.4702L73.9943 59.6719L80.0554 59.6719L80.0554 61L72.4972 61ZM84.0588 48.6364L84.0588 61L82.6341 61L82.6341 48.6364L84.0588 48.6364ZM91.9827 61L91.9827 48.6364L93.4075 48.6364L93.4075 53.2003L93.5282 53.2003C93.6328 53.0393 93.7777 52.834 93.9629 52.5845C94.152 52.331 94.4217 52.1056 94.7718 51.9084C95.126 51.7071 95.6049 51.6065 96.2086 51.6065C96.9894 51.6065 97.6776 51.8017 98.2732 52.1921C98.8689 52.5825 99.3337 53.1359 99.6677 53.8523C100.002 54.5687 100.169 55.4138 100.169 56.3878C100.169 57.3698 100.002 58.221 99.6677 58.9414C99.3337 59.6578 98.8709 60.2132 98.2793 60.6076C97.6876 60.998 97.0055 61.1932 96.2327 61.1932C95.6371 61.1932 95.1602 61.0946 94.802 60.8974C94.4438 60.6961 94.1681 60.4687 93.9749 60.2152C93.7817 59.9576 93.6328 59.7443 93.5282 59.5753L93.3592 59.5753L93.3592 61L91.9827 61ZM93.3833 56.3636C93.3833 57.0639 93.4859 57.6817 93.6912 58.217C93.8964 58.7482 94.1963 59.1648 94.5907 59.4666C94.9851 59.7644 95.4681 59.9133 96.0396 59.9133C96.6352 59.9133 97.1322 59.7564 97.5307 59.4425C97.9331 59.1245 98.235 58.6979 98.4362 58.1626C98.6415 57.6233 98.7441 57.0237 98.7441 56.3636C98.7441 55.7116 98.6435 55.124 98.4423 54.6008C98.245 54.0736 97.9452 53.6571 97.5428 53.3512C97.1443 53.0413 96.6432 52.8864 96.0396 52.8864C95.46 52.8864 94.973 53.0333 94.5786 53.3271C94.1842 53.6168 93.8864 54.0233 93.6852 54.5465C93.4839 55.0657 93.3833 55.6714 93.3833 56.3636ZM105.247 61.2173C104.659 61.2173 104.126 61.1066 103.647 60.8853C103.168 60.6599 102.788 60.3359 102.506 59.9133C102.224 59.4867 102.083 58.9716 102.083 58.3679C102.083 57.8366 102.188 57.406 102.397 57.076C102.607 56.7419 102.886 56.4803 103.237 56.2912C103.587 56.102 103.973 55.9612 104.396 55.8686C104.822 55.772 105.251 55.6955 105.681 55.6392C106.245 55.5668 106.702 55.5124 107.052 55.4762C107.406 55.436 107.664 55.3696 107.825 55.277C107.99 55.1844 108.072 55.0234 108.072 54.794L108.072 54.7457C108.072 54.1501 107.909 53.6873 107.583 53.3572C107.261 53.0272 106.772 52.8622 106.116 52.8622C105.436 52.8622 104.903 53.0111 104.516 53.3089C104.13 53.6068 103.858 53.9247 103.701 54.2628L102.349 53.7798C102.591 53.2164 102.913 52.7777 103.315 52.4638C103.722 52.1458 104.164 51.9245 104.643 51.7997C105.126 51.6709 105.601 51.6065 106.068 51.6065C106.366 51.6065 106.708 51.6428 107.094 51.7152C107.485 51.7836 107.861 51.9265 108.223 52.1438C108.589 52.3611 108.893 52.6892 109.135 53.1278C109.376 53.5665 109.497 54.1541 109.497 54.8906L109.497 61L108.072 61L108.072 59.7443L108 59.7443C107.903 59.9455 107.742 60.1609 107.517 60.3903C107.291 60.6197 106.992 60.8149 106.617 60.9758C106.243 61.1368 105.786 61.2173 105.247 61.2173ZM105.464 59.9375C106.028 59.9375 106.503 59.8268 106.889 59.6055C107.279 59.3841 107.573 59.0984 107.77 58.7482C107.972 58.3981 108.072 58.0298 108.072 57.6435L108.072 56.3395C108.012 56.4119 107.879 56.4783 107.674 56.5387C107.472 56.595 107.239 56.6454 106.973 56.6896C106.712 56.7299 106.456 56.7661 106.207 56.7983C105.961 56.8265 105.762 56.8506 105.609 56.8707C105.239 56.919 104.893 56.9975 104.571 57.1062C104.253 57.2108 103.995 57.3698 103.798 57.5831C103.605 57.7924 103.508 58.0781 103.508 58.4403C103.508 58.9354 103.691 59.3097 104.058 59.5632C104.428 59.8127 104.897 59.9375 105.464 59.9375ZM113.692 55.4219L113.692 61L112.267 61L112.267 51.7273L113.644 51.7273L113.644 53.1761L113.764 53.1761C113.982 52.7053 114.312 52.3269 114.754 52.0412C115.197 51.7514 115.769 51.6065 116.469 51.6065C117.097 51.6065 117.646 51.7353 118.117 51.9929C118.588 52.2464 118.954 52.6328 119.216 53.152C119.477 53.6671 119.608 54.3191 119.608 55.108L119.608 61L118.183 61L118.183 55.2045C118.183 54.4761 117.994 53.9086 117.616 53.5021C117.238 53.0916 116.718 52.8864 116.058 52.8864C115.604 52.8864 115.197 52.985 114.839 53.1822C114.485 53.3794 114.205 53.6671 114 54.0455C113.795 54.4238 113.692 54.8826 113.692 55.4219ZM126.149 61.1932C125.279 61.1932 124.531 60.9879 123.903 60.5774C123.275 60.1669 122.792 59.6014 122.454 58.881C122.116 58.1606 121.947 57.3376 121.947 56.4119C121.947 55.4702 122.12 54.6391 122.466 53.9187C122.816 53.1942 123.303 52.6288 123.927 52.2223C124.555 51.8118 125.287 51.6065 126.124 51.6065C126.776 51.6065 127.364 51.7273 127.887 51.9687C128.41 52.2102 128.839 52.5483 129.173 52.983C129.507 53.4176 129.714 53.9247 129.795 54.5043L128.37 54.5043C128.262 54.0817 128.02 53.7074 127.646 53.3814C127.276 53.0514 126.776 52.8864 126.149 52.8864C125.593 52.8864 125.106 53.0312 124.688 53.321C124.273 53.6068 123.949 54.0112 123.716 54.5344C123.486 55.0536 123.372 55.6633 123.372 56.3636C123.372 57.08 123.484 57.7038 123.71 58.2351C123.939 58.7663 124.261 59.1789 124.676 59.4727C125.094 59.7664 125.585 59.9133 126.149 59.9133C126.519 59.9133 126.855 59.849 127.157 59.7202C127.459 59.5914 127.714 59.4062 127.923 59.1648C128.133 58.9233 128.282 58.6335 128.37 58.2954L129.795 58.2954C129.714 58.8428 129.515 59.3358 129.197 59.7745C128.883 60.2092 128.467 60.5553 127.948 60.8128C127.432 61.0664 126.833 61.1932 126.149 61.1932ZM135.815 61.1932C134.978 61.1932 134.243 60.994 133.611 60.5955C132.983 60.1971 132.492 59.6397 132.138 58.9233C131.788 58.2069 131.613 57.3698 131.613 56.4119C131.613 55.446 131.788 54.6029 132.138 53.8825C132.492 53.162 132.983 52.6026 133.611 52.2042C134.243 51.8058 134.978 51.6065 135.815 51.6065C136.652 51.6065 137.384 51.8058 138.012 52.2042C138.644 52.6026 139.135 53.162 139.485 53.8825C139.839 54.6029 140.016 55.446 140.016 56.4119C140.016 57.3698 139.839 58.2069 139.485 58.9233C139.135 59.6397 138.644 60.1971 138.012 60.5955C137.384 60.994 136.652 61.1932 135.815 61.1932ZM135.815 59.9133C136.451 59.9133 136.974 59.7503 137.384 59.4244C137.795 59.0984 138.099 58.6697 138.296 58.1385C138.493 57.6072 138.592 57.0317 138.592 56.4119C138.592 55.7921 138.493 55.2146 138.296 54.6793C138.099 54.1441 137.795 53.7114 137.384 53.3814C136.974 53.0514 136.451 52.8864 135.815 52.8864C135.179 52.8864 134.656 53.0514 134.245 53.3814C133.835 53.7114 133.531 54.1441 133.334 54.6793C133.136 55.2146 133.038 55.7921 133.038 56.4119C133.038 57.0317 133.136 57.6072 133.334 58.1385C133.531 58.6697 133.835 59.0984 134.245 59.4244C134.656 59.7503 135.179 59.9133 135.815 59.9133ZM150.814 61.1932C150.041 61.1932 149.359 60.998 148.767 60.6076C148.176 60.2132 147.713 59.6578 147.379 58.9414C147.045 58.221 146.878 57.3698 146.878 56.3878C146.878 55.4138 147.045 54.5687 147.379 53.8523C147.713 53.1359 148.178 52.5825 148.773 52.1921C149.369 51.8017 150.057 51.6065 150.838 51.6065C151.442 51.6065 151.919 51.7071 152.269 51.9084C152.623 52.1056 152.893 52.331 153.078 52.5845C153.267 52.834 153.414 53.0393 153.518 53.2003L153.639 53.2003L153.639 48.6364L155.064 48.6364L155.064 61L153.687 61L153.687 59.5753L153.518 59.5753C153.414 59.7443 153.265 59.9576 153.072 60.2152C152.879 60.4687 152.603 60.6961 152.245 60.8974C151.886 61.0946 151.41 61.1932 150.814 61.1932ZM151.007 59.9133C151.579 59.9133 152.062 59.7644 152.456 59.4666C152.85 59.1648 153.15 58.7482 153.355 58.217C153.561 57.6817 153.663 57.0639 153.663 56.3636C153.663 55.6714 153.563 55.0657 153.361 54.5465C153.16 54.0233 152.862 53.6168 152.468 53.3271C152.074 53.0333 151.587 52.8864 151.007 52.8864C150.403 52.8864 149.9 53.0413 149.498 53.3512C149.099 53.6571 148.8 54.0736 148.598 54.6008C148.401 55.124 148.303 55.7116 148.303 56.3636C148.303 57.0237 148.403 57.6233 148.604 58.1626C148.81 58.6979 149.111 59.1245 149.51 59.4425C149.912 59.7564 150.411 59.9133 151.007 59.9133ZM161.929 61.1932C161.035 61.1932 160.265 60.996 159.617 60.6016C158.973 60.2031 158.476 59.6477 158.126 58.9354C157.779 58.219 157.606 57.3859 157.606 56.4361C157.606 55.4863 157.779 54.6491 158.126 53.9247C158.476 53.1963 158.963 52.6288 159.587 52.2223C160.214 51.8118 160.947 51.6065 161.784 51.6065C162.267 51.6065 162.744 51.687 163.215 51.848C163.686 52.009 164.114 52.2706 164.501 52.6328C164.887 52.991 165.195 53.4659 165.424 54.0575C165.654 54.6491 165.768 55.3776 165.768 56.2429L165.768 56.8466L158.621 56.8466L158.621 55.6151L164.319 55.6151C164.319 55.0919 164.215 54.625 164.006 54.2145C163.8 53.804 163.506 53.48 163.124 53.2425C162.746 53.0051 162.299 52.8864 161.784 52.8864C161.216 52.8864 160.725 53.0272 160.311 53.3089C159.9 53.5866 159.584 53.9489 159.363 54.3956C159.142 54.8423 159.031 55.3213 159.031 55.8324L159.031 56.6534C159.031 57.3537 159.152 57.9473 159.393 58.4343C159.639 58.9173 159.979 59.2855 160.414 59.5391C160.848 59.7886 161.353 59.9133 161.929 59.9133C162.303 59.9133 162.641 59.861 162.943 59.7564C163.249 59.6477 163.513 59.4867 163.734 59.2734C163.955 59.0561 164.126 58.7865 164.247 58.4645L165.623 58.8508C165.479 59.3177 165.235 59.7282 164.893 60.0824C164.551 60.4325 164.128 60.7062 163.625 60.9034C163.122 61.0966 162.557 61.1932 161.929 61.1932ZM174.482 48.6364L174.482 61L173.057 61L173.057 48.6364L174.482 48.6364ZM181.028 61.1932C180.191 61.1932 179.456 60.994 178.825 60.5955C178.197 60.1971 177.706 59.6397 177.352 58.9233C177.001 58.2069 176.826 57.3698 176.826 56.4119C176.826 55.446 177.001 54.6029 177.352 53.8825C177.706 53.162 178.197 52.6026 178.825 52.2042C179.456 51.8058 180.191 51.6065 181.028 51.6065C181.865 51.6065 182.598 51.8058 183.225 52.2042C183.857 52.6026 184.348 53.162 184.699 53.8825C185.053 54.6029 185.23 55.446 185.23 56.4119C185.23 57.3698 185.053 58.2069 184.699 58.9233C184.348 59.6397 183.857 60.1971 183.225 60.5955C182.598 60.994 181.865 61.1932 181.028 61.1932ZM181.028 59.9133C181.664 59.9133 182.187 59.7503 182.598 59.4244C183.008 59.0984 183.312 58.6697 183.509 58.1385C183.706 57.6072 183.805 57.0317 183.805 56.4119C183.805 55.7921 183.706 55.2146 183.509 54.6793C183.312 54.1441 183.008 53.7114 182.598 53.3814C182.187 53.0514 181.664 52.8864 181.028 52.8864C180.392 52.8864 179.869 53.0514 179.458 53.3814C179.048 53.7114 178.744 54.1441 178.547 54.6793C178.35 55.2146 178.251 55.7921 178.251 56.4119C178.251 57.0317 178.35 57.6072 178.547 58.1385C178.744 58.6697 179.048 59.0984 179.458 59.4244C179.869 59.7503 180.392 59.9133 181.028 59.9133ZM194.143 53.804L192.863 54.1662C192.782 53.9529 192.664 53.7456 192.507 53.5444C192.354 53.3391 192.145 53.1701 191.879 53.0373C191.613 52.9045 191.273 52.8381 190.859 52.8381C190.291 52.8381 189.818 52.9689 189.44 53.2305C189.066 53.488 188.879 53.816 188.879 54.2145C188.879 54.5687 189.007 54.8484 189.265 55.0536C189.522 55.2589 189.925 55.4299 190.472 55.5668L191.849 55.9048C192.678 56.1061 193.296 56.4139 193.702 56.8285C194.109 57.239 194.312 57.7682 194.312 58.4162C194.312 58.9474 194.159 59.4223 193.853 59.8409C193.551 60.2595 193.129 60.5895 192.585 60.831C192.042 61.0724 191.41 61.1932 190.69 61.1932C189.744 61.1932 188.961 60.9879 188.341 60.5774C187.721 60.1669 187.329 59.5672 187.164 58.7784L188.516 58.4403C188.645 58.9394 188.889 59.3137 189.247 59.5632C189.609 59.8127 190.082 59.9375 190.665 59.9375C191.33 59.9375 191.857 59.7966 192.247 59.5149C192.642 59.2292 192.839 58.8871 192.839 58.4886C192.839 58.1667 192.726 57.897 192.501 57.6797C192.275 57.4583 191.929 57.2933 191.462 57.1847L189.917 56.8224C189.068 56.6212 188.444 56.3093 188.045 55.8867C187.651 55.4601 187.454 54.9268 187.454 54.2869C187.454 53.7637 187.601 53.3009 187.895 52.8984C188.192 52.496 188.597 52.18 189.108 51.9506C189.623 51.7212 190.207 51.6065 190.859 51.6065C191.776 51.6065 192.497 51.8078 193.02 52.2102C193.547 52.6127 193.921 53.1439 194.143 53.804ZM205.079 61.1932C204.306 61.1932 203.624 60.998 203.033 60.6076C202.441 60.2132 201.978 59.6578 201.644 58.9414C201.31 58.221 201.143 57.3698 201.143 56.3878C201.143 55.4138 201.31 54.5687 201.644 53.8523C201.978 53.1359 202.443 52.5825 203.039 52.1921C203.634 51.8017 204.322 51.6065 205.103 51.6065C205.707 51.6065 206.184 51.7071 206.534 51.9084C206.888 52.1056 207.158 52.331 207.343 52.5845C207.532 52.834 207.679 53.0393 207.784 53.2003L207.904 53.2003L207.904 48.6364L209.329 48.6364L209.329 61L207.953 61L207.953 59.5753L207.784 59.5753C207.679 59.7443 207.53 59.9576 207.337 60.2152C207.144 60.4687 206.868 60.6961 206.51 60.8974C206.152 61.0946 205.675 61.1932 205.079 61.1932ZM205.272 59.9133C205.844 59.9133 206.327 59.7644 206.721 59.4666C207.116 59.1648 207.415 58.7482 207.621 58.217C207.826 57.6817 207.928 57.0639 207.928 56.3636C207.928 55.6714 207.828 55.0657 207.627 54.5465C207.425 54.0233 207.128 53.6168 206.733 53.3271C206.339 53.0333 205.852 52.8864 205.272 52.8864C204.669 52.8864 204.165 53.0413 203.763 53.3512C203.365 53.6571 203.065 54.0736 202.864 54.6008C202.666 55.124 202.568 55.7116 202.568 56.3636C202.568 57.0237 202.668 57.6233 202.87 58.1626C203.075 58.6979 203.377 59.1245 203.775 59.4425C204.178 59.7564 204.677 59.9133 205.272 59.9133ZM216.073 61.1932C215.236 61.1932 214.502 60.994 213.87 60.5955C213.242 60.1971 212.751 59.6397 212.397 58.9233C212.047 58.2069 211.872 57.3698 211.872 56.4119C211.872 55.446 212.047 54.6029 212.397 53.8825C212.751 53.162 213.242 52.6026 213.87 52.2042C214.502 51.8058 215.236 51.6065 216.073 51.6065C216.91 51.6065 217.643 51.8058 218.271 52.2042C218.903 52.6026 219.394 53.162 219.744 53.8825C220.098 54.6029 220.275 55.446 220.275 56.4119C220.275 57.3698 220.098 58.2069 219.744 58.9233C219.394 59.6397 218.903 60.1971 218.271 60.5955C217.643 60.994 216.91 61.1932 216.073 61.1932ZM216.073 59.9133C216.709 59.9133 217.232 59.7503 217.643 59.4244C218.053 59.0984 218.357 58.6697 218.554 58.1385C218.752 57.6072 218.85 57.0317 218.85 56.4119C218.85 55.7921 218.752 55.2146 218.554 54.6793C218.357 54.1441 218.053 53.7114 217.643 53.3814C217.232 53.0514 216.709 52.8864 216.073 52.8864C215.437 52.8864 214.914 53.0514 214.504 53.3814C214.093 53.7114 213.789 54.1441 213.592 54.6793C213.395 55.2146 213.296 55.7921 213.296 56.4119C213.296 57.0317 213.395 57.6072 213.592 58.1385C213.789 58.6697 214.093 59.0984 214.504 59.4244C214.914 59.7503 215.437 59.9133 216.073 59.9133ZM222.62 61L222.62 51.7273L223.996 51.7273L223.996 53.1761L224.117 53.1761C224.31 52.6811 224.622 52.2968 225.053 52.0231C225.483 51.7454 226 51.6065 226.604 51.6065C227.216 51.6065 227.725 51.7454 228.131 52.0231C228.542 52.2968 228.862 52.6811 229.091 53.1761L229.188 53.1761C229.425 52.6972 229.782 52.3169 230.256 52.0352C230.731 51.7494 231.301 51.6065 231.965 51.6065C232.794 51.6065 233.472 51.8661 233.999 52.3853C234.527 52.9004 234.79 53.7034 234.79 54.794L234.79 61L233.366 61L233.366 54.794C233.366 54.1098 233.178 53.6209 232.804 53.3271C232.43 53.0333 231.989 52.8864 231.482 52.8864C230.83 52.8864 230.325 53.0836 229.967 53.478C229.609 53.8684 229.429 54.3634 229.429 54.9631L229.429 61L227.981 61L227.981 54.6491C227.981 54.1219 227.81 53.6973 227.467 53.3754C227.125 53.0494 226.685 52.8864 226.145 52.8864C225.775 52.8864 225.429 52.985 225.107 53.1822C224.789 53.3794 224.531 53.6531 224.334 54.0032C224.141 54.3493 224.044 54.7498 224.044 55.2045L224.044 61L222.62 61ZM237.565 61L237.565 51.7273L238.99 51.7273L238.99 61L237.565 61ZM238.29 50.1818C238.012 50.1818 237.772 50.0872 237.571 49.8981C237.374 49.7089 237.275 49.4815 237.275 49.2159C237.275 48.9503 237.374 48.7229 237.571 48.5337C237.772 48.3446 238.012 48.25 238.29 48.25C238.567 48.25 238.805 48.3446 239.002 48.5337C239.203 48.7229 239.304 48.9503 239.304 49.2159C239.304 49.4815 239.203 49.7089 239.002 49.8981C238.805 50.0872 238.567 50.1818 238.29 50.1818ZM243.194 55.4219L243.194 61L241.769 61L241.769 51.7273L243.146 51.7273L243.146 53.1761L243.266 53.1761C243.484 52.7053 243.814 52.3269 244.257 52.0412C244.699 51.7514 245.271 51.6065 245.971 51.6065C246.599 51.6065 247.148 51.7353 247.619 51.9929C248.09 52.2464 248.456 52.6328 248.718 53.152C248.979 53.6671 249.11 54.3191 249.11 55.108L249.11 61L247.686 61L247.686 55.2045C247.686 54.4761 247.496 53.9086 247.118 53.5021C246.74 53.0916 246.221 52.8864 245.561 52.8864C245.106 52.8864 244.699 52.985 244.341 53.1822C243.987 53.3794 243.707 53.6671 243.502 54.0455C243.297 54.4238 243.194 54.8826 243.194 55.4219ZM251.884 61L251.884 51.7273L253.308 51.7273L253.308 61L251.884 61ZM252.608 50.1818C252.33 50.1818 252.091 50.0872 251.89 49.8981C251.693 49.7089 251.594 49.4815 251.594 49.2159C251.594 48.9503 251.693 48.7229 251.89 48.5337C252.091 48.3446 252.33 48.25 252.608 48.25C252.886 48.25 253.123 48.3446 253.32 48.5337C253.522 48.7229 253.622 48.9503 253.622 49.2159C253.622 49.4815 253.522 49.7089 253.32 49.8981C253.123 50.0872 252.886 50.1818 252.608 50.1818ZM259.855 61.1932C258.986 61.1932 258.237 60.9879 257.609 60.5774C256.981 60.1669 256.498 59.6014 256.16 58.881C255.822 58.1606 255.653 57.3376 255.653 56.4119C255.653 55.4702 255.826 54.6391 256.172 53.9187C256.523 53.1942 257.009 52.6288 257.633 52.2223C258.261 51.8118 258.994 51.6065 259.831 51.6065C260.483 51.6065 261.07 51.7273 261.594 51.9687C262.117 52.2102 262.545 52.5483 262.879 52.983C263.213 53.4176 263.421 53.9247 263.501 54.5043L262.076 54.5043C261.968 54.0817 261.726 53.7074 261.352 53.3814C260.982 53.0514 260.483 52.8864 259.855 52.8864C259.3 52.8864 258.813 53.0312 258.394 53.321C257.979 53.6068 257.655 54.0112 257.422 54.5344C257.193 55.0536 257.078 55.6633 257.078 56.3636C257.078 57.08 257.191 57.7038 257.416 58.2351C257.645 58.7663 257.967 59.1789 258.382 59.4727C258.8 59.7664 259.291 59.9133 259.855 59.9133C260.225 59.9133 260.561 59.849 260.863 59.7202C261.165 59.5914 261.42 59.4062 261.63 59.1648C261.839 58.9233 261.988 58.6335 262.076 58.2954L263.501 58.2954C263.421 58.8428 263.222 59.3358 262.904 59.7745C262.59 60.2092 262.173 60.5553 261.654 60.8128C261.139 61.0664 260.539 61.1932 259.855 61.1932ZM268.483 61.2173C267.895 61.2173 267.362 61.1066 266.883 60.8853C266.404 60.6599 266.024 60.3359 265.742 59.9133C265.46 59.4867 265.319 58.9716 265.319 58.3679C265.319 57.8366 265.424 57.406 265.633 57.076C265.842 56.7419 266.122 56.4803 266.472 56.2912C266.822 56.102 267.209 55.9612 267.631 55.8686C268.058 55.772 268.487 55.6955 268.917 55.6392C269.481 55.5668 269.938 55.5124 270.288 55.4762C270.642 55.436 270.899 55.3696 271.06 55.277C271.225 55.1844 271.308 55.0234 271.308 54.794L271.308 54.7457C271.308 54.1501 271.145 53.6873 270.819 53.3572C270.497 53.0272 270.008 52.8622 269.352 52.8622C268.672 52.8622 268.139 53.0111 267.752 53.3089C267.366 53.6068 267.094 53.9247 266.937 54.2628L265.585 53.7798C265.826 53.2164 266.148 52.7777 266.551 52.4638C266.957 52.1458 267.4 51.9245 267.879 51.7997C268.362 51.6709 268.837 51.6065 269.304 51.6065C269.601 51.6065 269.944 51.6428 270.33 51.7152C270.72 51.7836 271.097 51.9265 271.459 52.1438C271.825 52.3611 272.129 52.6892 272.37 53.1278C272.612 53.5665 272.733 54.1541 272.733 54.8906L272.733 61L271.308 61L271.308 59.7443L271.235 59.7443C271.139 59.9455 270.978 60.1609 270.753 60.3903C270.527 60.6197 270.227 60.8149 269.853 60.9758C269.479 61.1368 269.022 61.2173 268.483 61.2173ZM268.7 59.9375C269.263 59.9375 269.738 59.8268 270.125 59.6055C270.515 59.3841 270.809 59.0984 271.006 58.7482C271.207 58.3981 271.308 58.0298 271.308 57.6435L271.308 56.3395C271.248 56.4119 271.115 56.4783 270.909 56.5387C270.708 56.595 270.475 56.6454 270.209 56.6896C269.948 56.7299 269.692 56.7661 269.443 56.7983C269.197 56.8265 268.998 56.8506 268.845 56.8707C268.475 56.919 268.128 56.9975 267.807 57.1062C267.489 57.2108 267.231 57.3698 267.034 57.5831C266.841 57.7924 266.744 58.0781 266.744 58.4403C266.744 58.9354 266.927 59.3097 267.293 59.5632C267.664 59.8127 268.133 59.9375 268.7 59.9375ZM276.928 55.4219L276.928 61L275.503 61L275.503 51.7273L276.879 51.7273L276.879 53.1761L277 53.1761C277.218 52.7053 277.548 52.3269 277.99 52.0412C278.433 51.7514 279.004 51.6065 279.705 51.6065C280.333 51.6065 280.882 51.7353 281.353 51.9929C281.824 52.2464 282.19 52.6328 282.452 53.152C282.713 53.6671 282.844 54.3191 282.844 55.108L282.844 61L281.419 61L281.419 55.2045C281.419 54.4761 281.23 53.9086 280.852 53.5021C280.473 53.0916 279.954 52.8864 279.294 52.8864C278.839 52.8864 278.433 52.985 278.075 53.1822C277.721 53.3794 277.441 53.6671 277.236 54.0455C277.03 54.4238 276.928 54.8826 276.928 55.4219ZM289.384 61.1932C288.547 61.1932 287.813 60.994 287.181 60.5955C286.553 60.1971 286.062 59.6397 285.708 58.9233C285.358 58.2069 285.183 57.3698 285.183 56.4119C285.183 55.446 285.358 54.6029 285.708 53.8825C286.062 53.162 286.553 52.6026 287.181 52.2042C287.813 51.8058 288.547 51.6065 289.384 51.6065C290.222 51.6065 290.954 51.8058 291.582 52.2042C292.214 52.6026 292.705 53.162 293.055 53.8825C293.409 54.6029 293.586 55.446 293.586 56.4119C293.586 57.3698 293.409 58.2069 293.055 58.9233C292.705 59.6397 292.214 60.1971 291.582 60.5955C290.954 60.994 290.222 61.1932 289.384 61.1932ZM289.384 59.9133C290.02 59.9133 290.544 59.7503 290.954 59.4244C291.365 59.0984 291.668 58.6697 291.866 58.1385C292.063 57.6072 292.161 57.0317 292.161 56.4119C292.161 55.7921 292.063 55.2146 291.866 54.6793C291.668 54.1441 291.365 53.7114 290.954 53.3814C290.544 53.0514 290.02 52.8864 289.384 52.8864C288.749 52.8864 288.225 53.0514 287.815 53.3814C287.404 53.7114 287.1 54.1441 286.903 54.6793C286.706 55.2146 286.607 55.7921 286.607 56.4119C286.607 57.0317 286.706 57.6072 286.903 58.1385C287.1 58.6697 287.404 59.0984 287.815 59.4244C288.225 59.7503 288.749 59.9133 289.384 59.9133ZM302.499 53.804L301.219 54.1662C301.139 53.9529 301.02 53.7456 300.863 53.5444C300.71 53.3391 300.501 53.1701 300.235 53.0373C299.97 52.9045 299.63 52.8381 299.215 52.8381C298.648 52.8381 298.175 52.9689 297.796 53.2305C297.422 53.488 297.235 53.816 297.235 54.2145C297.235 54.5687 297.364 54.8484 297.621 55.0536C297.879 55.2589 298.281 55.4299 298.829 55.5668L300.205 55.9048C301.034 56.1061 301.652 56.4139 302.058 56.8285C302.465 57.239 302.668 57.7682 302.668 58.4162C302.668 58.9474 302.515 59.4223 302.209 59.8409C301.907 60.2595 301.485 60.5895 300.942 60.831C300.398 61.0724 299.766 61.1932 299.046 61.1932C298.1 61.1932 297.317 60.9879 296.698 60.5774C296.078 60.1669 295.685 59.5672 295.52 58.7784L296.873 58.4403C297.001 58.9394 297.245 59.3137 297.603 59.5632C297.965 59.8127 298.438 59.9375 299.022 59.9375C299.686 59.9375 300.213 59.7966 300.604 59.5149C300.998 59.2292 301.195 58.8871 301.195 58.4886C301.195 58.1667 301.082 57.897 300.857 57.6797C300.632 57.4583 300.286 57.2933 299.819 57.1847L298.273 56.8224C297.424 56.6212 296.8 56.3093 296.402 55.8867C296.007 55.4601 295.81 54.9268 295.81 54.2869C295.81 53.7637 295.957 53.3009 296.251 52.8984C296.549 52.496 296.953 52.18 297.464 51.9506C297.979 51.7212 298.563 51.6065 299.215 51.6065C300.133 51.6065 300.853 51.8078 301.376 52.2102C301.903 52.6127 302.278 53.1439 302.499 53.804Z" fill="#004D61"/>
<path d="M72.7244 46L72.7244 23.2151L82.2256 23.2151C83.9315 23.2151 85.3592 23.4562 86.5088 23.9383C87.6659 24.4204 88.5337 25.0953 89.1122 25.9631C89.6981 26.8309 89.9911 27.8359 89.9911 28.9781C89.9911 29.8459 89.8094 30.6209 89.446 31.3033C89.0825 31.9782 88.5819 32.5382 87.944 32.9832C87.3062 33.4283 86.5682 33.7398 85.7301 33.9178L85.7301 34.1403C86.6498 34.1848 87.499 34.4333 88.2778 34.8857C89.064 35.3381 89.6944 35.9686 90.1691 36.777C90.6438 37.578 90.8811 38.5274 90.8811 39.6251C90.8811 40.8489 90.5696 41.9429 89.9466 42.9071C89.3236 43.8639 88.4224 44.6204 87.2431 45.1767C86.0638 45.7256 84.6324 46 82.9487 46L72.7244 46ZM78.2315 41.5609L81.6359 41.5609C82.83 41.5609 83.7089 41.3347 84.2726 40.8823C84.8437 40.4299 85.1293 39.7994 85.1293 38.991C85.1293 38.405 84.9921 37.9007 84.7176 37.4779C84.4432 37.0477 84.0538 36.7177 83.5495 36.4878C83.0451 36.2504 82.4406 36.1317 81.736 36.1317L78.2315 36.1317L78.2315 41.5609ZM78.2315 32.5827L81.2799 32.5827C81.8807 32.5827 82.4147 32.4826 82.882 32.2823C83.3492 32.0821 83.7127 31.7928 83.9722 31.4146C84.2393 31.0363 84.3728 30.5801 84.3728 30.0461C84.3728 29.2822 84.102 28.6814 83.5606 28.2438C83.0192 27.8062 82.2886 27.5874 81.3689 27.5874L78.2315 27.5874L78.2315 32.5827ZM98.4575 46L92.5388 46L100.226 23.2151L107.558 23.2151L115.246 46L109.327 46L103.976 28.9558L103.798 28.9558L98.4575 46ZM97.6676 37.0329L110.039 37.0329L110.039 41.2161L97.6676 41.2161L97.6676 37.0329ZM137.091 23.2151L137.091 46L132.418 46L123.351 32.8497L123.206 32.8497L123.206 46L117.699 46L117.699 23.2151L122.438 23.2151L131.405 36.3431L131.595 36.3431L131.595 23.2151L137.091 23.2151ZM140.553 46L140.553 23.2151L149.965 23.2151C151.671 23.2151 153.144 23.5229 154.382 24.1385C155.628 24.7467 156.589 25.6219 157.264 26.7641C157.939 27.8989 158.276 29.2451 158.276 30.8027C158.276 32.3825 157.931 33.7249 157.242 34.8301C156.552 35.9278 155.573 36.7659 154.304 37.3444C153.036 37.9155 151.534 38.2011 149.799 38.2011L143.846 38.2011L143.846 33.8621L148.775 33.8621C149.606 33.8621 150.299 33.7546 150.856 33.5395C151.419 33.317 151.846 32.9832 152.135 32.5382C152.424 32.0858 152.569 31.5073 152.569 30.8027C152.569 30.098 152.424 29.5158 152.135 29.056C151.846 28.5887 151.419 28.2401 150.856 28.0102C150.292 27.7728 149.598 27.6542 148.775 27.6542L146.06 27.6542L146.06 46L140.553 46ZM153.381 35.5866L159.055 46L153.047 46L147.485 35.5866L153.381 35.5866ZM161.297 46L161.297 23.2151L177.184 23.2151L177.184 27.6875L166.804 27.6875L166.804 32.3602L176.372 32.3602L176.372 36.8438L166.804 36.8438L166.804 41.5276L177.184 41.5276L177.184 46L161.297 46ZM192.949 30.0461C192.874 29.2303 192.544 28.5961 191.958 28.1437C191.38 27.6838 190.553 27.4539 189.477 27.4539C188.765 27.4539 188.172 27.5466 187.697 27.732C187.223 27.9175 186.867 28.1733 186.629 28.4997C186.392 28.8186 186.27 29.1858 186.262 29.6011C186.247 29.9423 186.314 30.2427 186.462 30.5023C186.618 30.7619 186.841 30.9918 187.13 31.192C187.427 31.3849 187.783 31.5555 188.198 31.7038C188.613 31.8522 189.081 31.982 189.6 32.0932L191.558 32.5382C192.685 32.783 193.679 33.1093 194.54 33.5173C195.407 33.9252 196.134 34.411 196.72 34.9747C197.313 35.5384 197.762 36.1874 198.066 36.9216C198.37 37.6559 198.526 38.4792 198.534 39.3915C198.526 40.8304 198.163 42.0653 197.443 43.0963C196.724 44.1272 195.689 44.9171 194.339 45.466C192.997 46.0148 191.376 46.2893 189.477 46.2893C187.571 46.2893 185.91 46.0037 184.493 45.4326C183.077 44.8615 181.975 43.9937 181.189 42.8292C180.403 41.6648 179.999 40.1925 179.976 38.4124L185.25 38.4124C185.294 39.1467 185.491 39.7586 185.839 40.2481C186.188 40.7377 186.666 41.1085 187.275 41.3607C187.89 41.6129 188.602 41.739 189.411 41.739C190.152 41.739 190.783 41.6388 191.302 41.4386C191.829 41.2383 192.233 40.9602 192.515 40.6042C192.797 40.2481 192.941 39.8402 192.949 39.3804C192.941 38.9502 192.808 38.583 192.548 38.2789C192.288 37.9674 191.888 37.7004 191.347 37.4779C190.812 37.248 190.13 37.0366 189.299 36.8438L186.919 36.2875C184.946 35.8351 183.392 35.1045 182.257 34.0958C181.122 33.0797 180.559 31.7075 180.566 29.9794C180.559 28.5702 180.937 27.3352 181.701 26.2746C182.465 25.214 183.522 24.387 184.872 23.7936C186.221 23.2003 187.76 22.9036 189.489 22.9036C191.254 22.9036 192.785 23.204 194.083 23.8048C195.389 24.3981 196.401 25.2325 197.121 26.308C197.84 27.3834 198.207 28.6295 198.222 30.0461L192.949 30.0461ZM201.315 46L201.315 23.2151L217.202 23.2151L217.202 27.6875L206.822 27.6875L206.822 32.3602L216.39 32.3602L216.39 36.8438L206.822 36.8438L206.822 41.5276L217.202 41.5276L217.202 46L201.315 46ZM220.651 46L220.651 23.2151L230.063 23.2151C231.769 23.2151 233.241 23.5229 234.48 24.1385C235.726 24.7467 236.686 25.6219 237.361 26.7641C238.036 27.8989 238.374 29.2451 238.374 30.8027C238.374 32.3825 238.029 33.7249 237.339 34.8301C236.649 35.9278 235.67 36.7659 234.402 37.3444C233.134 37.9155 231.632 38.2011 229.896 38.2011L223.944 38.2011L223.944 33.8621L228.873 33.8621C229.703 33.8621 230.397 33.7546 230.953 33.5395C231.517 33.317 231.943 32.9832 232.232 32.5382C232.522 32.0858 232.666 31.5073 232.666 30.8027C232.666 30.098 232.522 29.5158 232.232 29.056C231.943 28.5887 231.517 28.2401 230.953 28.0102C230.389 27.7728 229.696 27.6542 228.873 27.6542L226.158 27.6542L226.158 46L220.651 46ZM233.478 35.5866L239.152 46L233.145 46L227.582 35.5866L233.478 35.5866ZM245.894 23.2151L250.99 39.9033L251.179 39.9033L256.274 23.2151L262.438 23.2151L254.75 46L247.419 46L239.731 23.2151L245.894 23.2151ZM266.424 46L260.505 46L268.193 23.2151L275.524 23.2151L283.212 46L277.293 46L271.942 28.9558L271.764 28.9558L266.424 46ZM265.634 37.0329L278.005 37.0329L278.005 41.2161L265.634 41.2161L265.634 37.0329ZM297.277 30.0461C297.203 29.2303 296.873 28.5961 296.287 28.1437C295.709 27.6838 294.882 27.4539 293.806 27.4539C293.094 27.4539 292.501 27.5466 292.026 27.732C291.551 27.9175 291.195 28.1733 290.958 28.4997C290.721 28.8186 290.598 29.1858 290.591 29.6011C290.576 29.9423 290.643 30.2427 290.791 30.5023C290.947 30.7619 291.169 30.9918 291.459 31.192C291.755 31.3849 292.111 31.5555 292.527 31.7038C292.942 31.8522 293.409 31.982 293.928 32.0932L295.887 32.5382C297.014 32.783 298.008 33.1093 298.868 33.5173C299.736 33.9252 300.463 34.411 301.049 34.9747C301.642 35.5384 302.091 36.1874 302.395 36.9216C302.699 37.6559 302.855 38.4792 302.862 39.3915C302.855 40.8304 302.491 42.0653 301.772 43.0963C301.052 44.1272 300.018 44.9171 298.668 45.466C297.325 46.0148 295.705 46.2893 293.806 46.2893C291.9 46.2893 290.239 46.0037 288.822 45.4326C287.405 44.8615 286.304 43.9937 285.518 42.8292C284.731 41.6648 284.327 40.1925 284.305 38.4124L289.578 38.4124C289.623 39.1467 289.819 39.7586 290.168 40.2481C290.517 40.7377 290.995 41.1085 291.603 41.3607C292.219 41.6129 292.931 41.739 293.739 41.739C294.481 41.739 295.111 41.6388 295.631 41.4386C296.157 41.2383 296.562 40.9602 296.843 40.6042C297.125 40.2481 297.27 39.8402 297.277 39.3804C297.27 38.9502 297.136 38.583 296.877 38.2789C296.617 37.9674 296.217 37.7004 295.675 37.4779C295.141 37.248 294.459 37.0366 293.628 36.8438L291.247 36.2875C289.274 35.8351 287.721 35.1045 286.586 34.0958C285.451 33.0797 284.887 31.7075 284.895 29.9794C284.887 28.5702 285.265 27.3352 286.029 26.2746C286.793 25.214 287.85 24.387 289.2 23.7936C290.55 23.2003 292.089 22.9036 293.817 22.9036C295.582 22.9036 297.114 23.204 298.412 23.8048C299.717 24.3981 300.73 25.2325 301.449 26.308C302.169 27.3834 302.536 28.6295 302.551 30.0461L297.277 30.0461Z" fill="#004D61"/>
<path d="M52.9776 28.7127C60.0958 31.147 64.3114 35.8288 64.8206 43.6561C56.8687 34.5418 46.3707 30.5196 35.1164 27.763C36.3068 27.6191 37.4305 27.5288 38.5391 27.3397C41.5214 26.8305 44.3854 25.9969 46.7789 24.0223C49.2691 21.9661 50.1006 19.2912 49.6172 16.1693C49.1359 13.0624 47.1657 11.234 44.321 10.2306C42.4152 9.55808 40.4363 9.37116 38.4188 9.41843C36.3132 9.46784 34.2076 9.43347 32.0998 9.43776L31.3629 9.43776L31.3629 26.953C27.5771 26.2698 23.8837 25.6037 20.1151 24.9226L20.1151 0.127963C20.3385 0.106478 20.5448 0.0699475 20.7489 0.0699475C28.8533 0.0613532 36.9599 -0.101934 45.0579 0.102181C51.3253 0.261176 56.555 2.81799 59.8251 8.4C63.9912 15.5161 60.7963 25.1374 53.2848 28.5451C53.1903 28.5881 53.1044 28.6439 52.9776 28.7127Z" fill="#004D61"/>
<path d="M-6.04787e-10 33.7468C2.7996 33.3364 5.59491 32.8852 8.4031 32.5264C14.0582 31.8045 19.7412 31.4929 25.4413 31.6713C32.9657 31.9055 40.3761 32.8659 47.5137 35.3991C51.5488 36.83 55.2314 38.8733 58.2244 41.9866C61.168 45.0483 62.7665 48.6193 61.9952 52.9745C61.9157 53.4278 61.7739 53.879 61.5955 54.3023C61.3441 54.8996 60.8929 55.0178 60.4074 54.5838C60.0829 54.2937 59.8573 53.8919 59.5995 53.531C57.5046 50.5767 54.8167 48.2454 51.8496 46.2258C45.1438 41.6579 37.699 38.7487 29.8223 37.0964C8.1818 32.5565 -6.04787e-10 33.7468 -6.04787e-10 33.7468Z" fill="#02AEF2"/>
<path d="M11.2629 43.2801C12.3715 43.1791 13.3212 43.0759 14.273 43.0072C19.9367 42.5925 25.6047 42.3626 31.2769 42.7966C37.381 43.265 43.3068 44.4575 48.704 47.4977C56.5979 52.6071 55.8502 59.9187 55.5774 60.7029C55.2658 61.5989 54.531 61.702 53.9101 61.0596C50.5497 57.5767 46.5426 54.992 42.3034 52.7381C35.4473 49.092 28.1507 46.6684 20.5813 45.0419C17.5518 44.3887 14.49 43.886 11.2629 43.2801Z" fill="#F79220"/>
</svg>
