<svg width="233" height="126" viewBox="0 0 233 126" fill="none" xmlns="http://www.w3.org/2000/svg">
<path d="M125.739 28.7127C132.857 31.147 137.073 35.8288 137.582 43.6561C129.63 34.5418 119.132 30.5196 107.878 27.763C109.068 27.6191 110.192 27.5288 111.301 27.3397C114.283 26.8305 117.147 25.9969 119.54 24.0223C122.031 21.9661 122.862 19.2912 122.379 16.1693C121.897 13.0624 119.927 11.234 117.082 10.2306C115.177 9.55808 113.198 9.37116 111.18 9.41843C109.075 9.46784 106.969 9.43347 104.861 9.43776L104.124 9.43776L104.124 26.953C100.339 26.2698 96.6451 25.6037 92.8765 24.9226L92.8765 0.127963C93.0999 0.106478 93.3062 0.0699475 93.5103 0.0699475C101.615 0.0613532 109.721 -0.101934 117.819 0.102181C124.087 0.261176 129.316 2.81799 132.587 8.4C136.753 15.5161 133.558 25.1374 126.046 28.5451C125.952 28.5881 125.866 28.6439 125.739 28.7127Z" fill="white"/>
<path d="M72.7614 33.7468C75.561 33.3364 78.3563 32.8852 81.1645 32.5264C86.8196 31.8045 92.5026 31.4929 98.2028 31.6713C105.727 31.9055 113.138 32.8659 120.275 35.3991C124.31 36.83 127.993 38.8733 130.986 41.9866C133.929 45.0483 135.528 48.6193 134.757 52.9745C134.677 53.4278 134.535 53.879 134.357 54.3023C134.106 54.8996 133.654 55.0178 133.169 54.5838C132.844 54.2937 132.619 53.8919 132.361 53.531C130.266 50.5767 127.578 48.2454 124.611 46.2258C117.905 41.6579 110.46 38.7487 102.584 37.0964C80.9432 32.5565 72.7614 33.7468 72.7614 33.7468Z" fill="#02AEF2"/>
<path d="M84.0243 43.2801C85.133 43.1791 86.0827 43.0759 87.0345 43.0072C92.6981 42.5925 98.3661 42.3626 104.038 42.7966C110.142 43.265 116.068 44.4575 121.465 47.4977C129.359 52.6071 128.612 59.9187 128.339 60.7029C128.027 61.5989 127.292 61.702 126.671 61.0596C123.311 57.5767 119.304 54.992 115.065 52.7381C108.209 49.092 100.912 46.6684 93.3427 45.0419C90.3132 44.3887 87.2515 43.886 84.0243 43.2801Z" fill="#F79220"/>
<path d="M1.72444 99.4912L1.72444 76.7064L11.2256 76.7064C12.9315 76.7064 14.3592 76.9474 15.5088 77.4295C16.6659 77.9116 17.5337 78.5866 18.1122 79.4543C18.6981 80.3221 18.9911 81.3271 18.9911 82.4693C18.9911 83.3371 18.8094 84.1122 18.446 84.7945C18.0825 85.4695 17.5819 86.0295 16.944 86.4745C16.3062 86.9195 15.5682 87.231 14.7301 87.409L14.7301 87.6315C15.6498 87.676 16.499 87.9245 17.2778 88.3769C18.064 88.8294 18.6944 89.4598 19.1691 90.2683C19.6438 91.0693 19.8811 92.0187 19.8811 93.1164C19.8811 94.3402 19.5696 95.4342 18.9466 96.3984C18.3236 97.3551 17.4224 98.1117 16.2431 98.6679C15.0638 99.2168 13.6324 99.4912 11.9487 99.4912L1.72444 99.4912ZM7.23153 95.0522L10.6359 95.0522C11.83 95.0522 12.7089 94.826 13.2726 94.3735C13.8437 93.9211 14.1293 93.2907 14.1293 92.4822C14.1293 91.8963 13.9921 91.3919 13.7176 90.9692C13.4432 90.539 13.0538 90.2089 12.5495 89.979C12.0451 89.7416 11.4406 89.623 10.736 89.623L7.23153 89.623L7.23153 95.0522ZM7.23153 86.074L10.2799 86.074C10.8807 86.074 11.4147 85.9738 11.882 85.7736C12.3492 85.5733 12.7127 85.2841 12.9722 84.9058C13.2393 84.5275 13.3728 84.0714 13.3728 83.5374C13.3728 82.7734 13.102 82.1727 12.5606 81.7351C12.0192 81.2975 11.2886 81.0787 10.3689 81.0787L7.23153 81.0787L7.23153 86.074ZM27.4575 99.4912L21.5388 99.4912L29.2265 76.7064L36.5581 76.7064L44.2458 99.4912L38.3271 99.4912L32.9758 82.4471L32.7978 82.4471L27.4575 99.4912ZM26.6676 90.5241L39.0391 90.5241L39.0391 94.7073L26.6676 94.7073L26.6676 90.5241ZM66.0906 76.7064L66.0906 99.4912L61.4179 99.4912L52.3507 86.341L52.2061 86.341L52.2061 99.4912L46.699 99.4912L46.699 76.7064L51.4384 76.7064L60.4055 89.8344L60.5946 89.8344L60.5946 76.7064L66.0906 76.7064ZM69.5534 99.4912L69.5534 76.7064L78.9655 76.7064C80.6714 76.7064 82.1436 77.0142 83.3823 77.6298C84.6283 78.238 85.5888 79.1132 86.2638 80.2554C86.9387 81.3902 87.2762 82.7363 87.2762 84.2939C87.2762 85.8737 86.9313 87.2162 86.2415 88.3213C85.5517 89.419 84.5727 90.2571 83.3044 90.8357C82.0361 91.4068 80.5342 91.6923 78.7986 91.6923L72.8465 91.6923L72.8465 87.3534L77.7751 87.3534C78.6058 87.3534 79.2992 87.2458 79.8555 87.0308C80.4192 86.8082 80.8457 86.4745 81.1349 86.0295C81.4242 85.577 81.5688 84.9985 81.5688 84.2939C81.5688 83.5893 81.4242 83.0071 81.1349 82.5472C80.8457 82.0799 80.4192 81.7313 79.8555 81.5014C79.2918 81.2641 78.5983 81.1454 77.7751 81.1454L75.0605 81.1454L75.0605 99.4912L69.5534 99.4912ZM82.381 89.0778L88.055 99.4912L82.0472 99.4912L76.4845 89.0778L82.381 89.0778ZM90.2967 99.4912L90.2967 76.7064L106.184 76.7064L106.184 81.1788L95.8038 81.1788L95.8038 85.8515L105.372 85.8515L105.372 90.335L95.8038 90.335L95.8038 95.0188L106.184 95.0188L106.184 99.4912L90.2967 99.4912ZM121.949 83.5374C121.874 82.7215 121.544 82.0874 120.958 81.6349C120.38 81.1751 119.553 80.9451 118.477 80.9451C117.765 80.9451 117.172 81.0379 116.697 81.2233C116.223 81.4087 115.867 81.6646 115.629 81.9909C115.392 82.3099 115.27 82.677 115.262 83.0924C115.247 83.4335 115.314 83.7339 115.462 83.9935C115.618 84.2531 115.841 84.483 116.13 84.6833C116.427 84.8761 116.783 85.0467 117.198 85.1951C117.613 85.3434 118.081 85.4732 118.6 85.5844L120.558 86.0295C121.685 86.2742 122.679 86.6006 123.54 87.0085C124.407 87.4164 125.134 87.9022 125.72 88.4659C126.313 89.0296 126.762 89.6786 127.066 90.4129C127.37 91.1472 127.526 91.9704 127.534 92.8827C127.526 94.3216 127.163 95.5565 126.443 96.5875C125.724 97.6185 124.689 98.4084 123.339 98.9572C121.997 99.5061 120.376 99.7805 118.477 99.7805C116.571 99.7805 114.91 99.4949 113.493 98.9238C112.077 98.3527 110.975 97.4849 110.189 96.3205C109.403 95.156 108.999 93.6838 108.976 91.9037L114.25 91.9037C114.294 92.638 114.491 93.2499 114.839 93.7394C115.188 94.2289 115.666 94.5998 116.275 94.8519C116.89 95.1041 117.602 95.2302 118.411 95.2302C119.152 95.2302 119.783 95.1301 120.302 94.9298C120.829 94.7295 121.233 94.4514 121.515 94.0954C121.797 93.7394 121.941 93.3315 121.949 92.8716C121.941 92.4414 121.808 92.0743 121.548 91.7702C121.288 91.4587 120.888 91.1917 120.347 90.9692C119.812 90.7392 119.13 90.5278 118.299 90.335L115.919 89.7787C113.946 89.3263 112.392 88.5957 111.257 87.587C110.122 86.5709 109.559 85.1988 109.566 83.4706C109.559 82.0614 109.937 80.8265 110.701 79.7659C111.465 78.7052 112.522 77.8782 113.872 77.2849C115.221 76.6915 116.76 76.3948 118.489 76.3948C120.254 76.3948 121.785 76.6952 123.083 77.296C124.389 77.8894 125.401 78.7238 126.121 79.7992C126.84 80.8747 127.207 82.1207 127.222 83.5374L121.949 83.5374ZM130.315 99.4912L130.315 76.7064L146.202 76.7064L146.202 81.1788L135.822 81.1788L135.822 85.8515L145.39 85.8515L145.39 90.335L135.822 90.335L135.822 95.0188L146.202 95.0188L146.202 99.4912L130.315 99.4912ZM149.651 99.4912L149.651 76.7064L159.063 76.7064C160.769 76.7064 162.241 77.0142 163.48 77.6298C164.726 78.238 165.686 79.1132 166.361 80.2554C167.036 81.3902 167.374 82.7363 167.374 84.2939C167.374 85.8737 167.029 87.2162 166.339 88.3213C165.649 89.419 164.67 90.2571 163.402 90.8357C162.134 91.4068 160.632 91.6923 158.896 91.6923L152.944 91.6923L152.944 87.3534L157.873 87.3534C158.703 87.3534 159.397 87.2458 159.953 87.0308C160.517 86.8082 160.943 86.4745 161.232 86.0295C161.522 85.577 161.666 84.9985 161.666 84.2939C161.666 83.5893 161.522 83.0071 161.232 82.5472C160.943 82.0799 160.517 81.7313 159.953 81.5014C159.389 81.2641 158.696 81.1454 157.873 81.1454L155.158 81.1454L155.158 99.4912L149.651 99.4912ZM162.478 89.0778L168.152 99.4912L162.145 99.4912L156.582 89.0778L162.478 89.0778ZM174.894 76.7064L179.99 93.3945L180.179 93.3945L185.274 76.7064L191.438 76.7064L183.75 99.4912L176.419 99.4912L168.731 76.7064L174.894 76.7064ZM195.424 99.4912L189.505 99.4912L197.193 76.7064L204.524 76.7064L212.212 99.4912L206.293 99.4912L200.942 82.4471L200.764 82.4471L195.424 99.4912ZM194.634 90.5241L207.005 90.5241L207.005 94.7073L194.634 94.7073L194.634 90.5241ZM226.277 83.5374C226.203 82.7215 225.873 82.0874 225.287 81.6349C224.709 81.1751 223.882 80.9451 222.806 80.9451C222.094 80.9451 221.501 81.0379 221.026 81.2233C220.551 81.4087 220.195 81.6646 219.958 81.9909C219.721 82.3099 219.598 82.677 219.591 83.0924C219.576 83.4335 219.643 83.7339 219.791 83.9935C219.947 84.2531 220.169 84.483 220.459 84.6833C220.755 84.8761 221.111 85.0467 221.527 85.1951C221.942 85.3434 222.409 85.4732 222.928 85.5844L224.887 86.0295C226.014 86.2742 227.008 86.6006 227.868 87.0085C228.736 87.4164 229.463 87.9022 230.049 88.4659C230.642 89.0296 231.091 89.6786 231.395 90.4129C231.699 91.1472 231.855 91.9704 231.862 92.8827C231.855 94.3216 231.491 95.5565 230.772 96.5875C230.052 97.6185 229.018 98.4084 227.668 98.9572C226.325 99.5061 224.705 99.7805 222.806 99.7805C220.9 99.7805 219.239 99.4949 217.822 98.9238C216.405 98.3527 215.304 97.4849 214.518 96.3205C213.731 95.156 213.327 93.6838 213.305 91.9037L218.578 91.9037C218.623 92.638 218.819 93.2499 219.168 93.7394C219.517 94.2289 219.995 94.5998 220.603 94.8519C221.219 95.1041 221.931 95.2302 222.739 95.2302C223.481 95.2302 224.111 95.1301 224.631 94.9298C225.157 94.7295 225.562 94.4514 225.843 94.0954C226.125 93.7394 226.27 93.3315 226.277 92.8716C226.27 92.4414 226.136 92.0743 225.877 91.7702C225.617 91.4587 225.217 91.1917 224.675 90.9692C224.141 90.7392 223.459 90.5278 222.628 90.335L220.247 89.7787C218.274 89.3263 216.721 88.5957 215.586 87.587C214.451 86.5709 213.887 85.1988 213.895 83.4706C213.887 82.0614 214.265 80.8265 215.029 79.7659C215.793 78.7052 216.85 77.8782 218.2 77.2849C219.55 76.6915 221.089 76.3948 222.817 76.3948C224.582 76.3948 226.114 76.6952 227.412 77.296C228.717 77.8894 229.73 78.7238 230.449 79.7992C231.169 80.8747 231.536 82.1207 231.551 83.5374L226.277 83.5374Z" fill="white"/>
<path d="M1.49716 124L1.49716 111.636L8.9588 111.636L8.9588 112.964L2.99432 112.964L2.99432 117.142L8.57244 117.142L8.57244 118.47L2.99432 118.47L2.99432 122.672L9.0554 122.672L9.0554 124L1.49716 124ZM13.0588 111.636L13.0588 124L11.6341 124L11.6341 111.636L13.0588 111.636ZM20.9827 124L20.9827 111.636L22.4075 111.636L22.4075 116.2L22.5282 116.2C22.6328 116.039 22.7777 115.834 22.9629 115.585C23.152 115.331 23.4217 115.106 23.7718 114.908C24.126 114.707 24.6049 114.607 25.2086 114.607C25.9894 114.607 26.6776 114.802 27.2732 115.192C27.8689 115.583 28.3337 116.136 28.6677 116.852C29.0018 117.569 29.1688 118.414 29.1688 119.388C29.1688 120.37 29.0018 121.221 28.6677 121.941C28.3337 122.658 27.8709 123.213 27.2793 123.608C26.6876 123.998 26.0055 124.193 25.2327 124.193C24.6371 124.193 24.1602 124.095 23.802 123.897C23.4438 123.696 23.1681 123.469 22.9749 123.215C22.7817 122.958 22.6328 122.744 22.5282 122.575L22.3592 122.575L22.3592 124L20.9827 124ZM22.3833 119.364C22.3833 120.064 22.4859 120.682 22.6912 121.217C22.8964 121.748 23.1963 122.165 23.5907 122.467C23.9851 122.764 24.4681 122.913 25.0396 122.913C25.6352 122.913 26.1322 122.756 26.5307 122.442C26.9331 122.125 27.235 121.698 27.4362 121.163C27.6415 120.623 27.7441 120.024 27.7441 119.364C27.7441 118.712 27.6435 118.124 27.4423 117.601C27.245 117.074 26.9452 116.657 26.5428 116.351C26.1443 116.041 25.6432 115.886 25.0396 115.886C24.46 115.886 23.973 116.033 23.5786 116.327C23.1842 116.617 22.8864 117.023 22.6852 117.547C22.4839 118.066 22.3833 118.671 22.3833 119.364ZM34.2468 124.217C33.6592 124.217 33.126 124.107 32.6471 123.885C32.1681 123.66 31.7878 123.336 31.5061 122.913C31.2243 122.487 31.0835 121.972 31.0835 121.368C31.0835 120.837 31.1881 120.406 31.3974 120.076C31.6067 119.742 31.8864 119.48 32.2365 119.291C32.5867 119.102 32.973 118.961 33.3956 118.869C33.8222 118.772 34.2509 118.696 34.6815 118.639C35.2449 118.567 35.7017 118.512 36.0519 118.476C36.406 118.436 36.6636 118.37 36.8246 118.277C36.9896 118.184 37.0721 118.023 37.0721 117.794L37.0721 117.746C37.0721 117.15 36.9091 116.687 36.5831 116.357C36.2612 116.027 35.7722 115.862 35.1162 115.862C34.436 115.862 33.9027 116.011 33.5164 116.309C33.13 116.607 32.8583 116.925 32.7014 117.263L31.3491 116.78C31.5906 116.216 31.9126 115.778 32.315 115.464C32.7215 115.146 33.1642 114.924 33.6431 114.8C34.1261 114.671 34.601 114.607 35.0679 114.607C35.3657 114.607 35.7078 114.643 36.0941 114.715C36.4845 114.784 36.8608 114.926 37.223 115.144C37.5893 115.361 37.8931 115.689 38.1346 116.128C38.3761 116.567 38.4968 117.154 38.4968 117.891L38.4968 124L37.0721 124L37.0721 122.744L36.9997 122.744C36.9031 122.946 36.7421 123.161 36.5167 123.39C36.2913 123.62 35.9915 123.815 35.6172 123.976C35.2429 124.137 34.7861 124.217 34.2468 124.217ZM34.4642 122.937C35.0276 122.937 35.5025 122.827 35.8889 122.605C36.2793 122.384 36.5731 122.098 36.7703 121.748C36.9715 121.398 37.0721 121.03 37.0721 120.643L37.0721 119.339C37.0118 119.412 36.8789 119.478 36.6737 119.539C36.4725 119.595 36.239 119.645 35.9734 119.69C35.7118 119.73 35.4562 119.766 35.2067 119.798C34.9612 119.826 34.762 119.851 34.6091 119.871C34.2388 119.919 33.8927 119.998 33.5707 120.106C33.2528 120.211 32.9952 120.37 32.798 120.583C32.6048 120.792 32.5082 121.078 32.5082 121.44C32.5082 121.935 32.6913 122.31 33.0576 122.563C33.4278 122.813 33.8967 122.937 34.4642 122.937ZM42.692 118.422L42.692 124L41.2672 124L41.2672 114.727L42.6437 114.727L42.6437 116.176L42.7644 116.176C42.9817 115.705 43.3117 115.327 43.7545 115.041C44.1972 114.751 44.7687 114.607 45.4689 114.607C46.0968 114.607 46.6461 114.735 47.117 114.993C47.5879 115.246 47.9541 115.633 48.2157 116.152C48.4773 116.667 48.6081 117.319 48.6081 118.108L48.6081 124L47.1834 124L47.1834 118.205C47.1834 117.476 46.9943 116.909 46.616 116.502C46.2376 116.092 45.7185 115.886 45.0584 115.886C44.6037 115.886 44.1972 115.985 43.839 116.182C43.4848 116.379 43.2051 116.667 42.9998 117.045C42.7946 117.424 42.692 117.883 42.692 118.422ZM55.1486 124.193C54.2793 124.193 53.5307 123.988 52.9029 123.577C52.275 123.167 51.7921 122.601 51.454 121.881C51.116 121.161 50.9469 120.338 50.9469 119.412C50.9469 118.47 51.12 117.639 51.4661 116.919C51.8162 116.194 52.3032 115.629 52.927 115.222C53.5549 114.812 54.2874 114.607 55.1245 114.607C55.7765 114.607 56.3641 114.727 56.8873 114.969C57.4105 115.21 57.8391 115.548 58.1731 115.983C58.5072 116.418 58.7144 116.925 58.7949 117.504L57.3702 117.504C57.2615 117.082 57.0201 116.707 56.6458 116.381C56.2755 116.051 55.7765 115.886 55.1486 115.886C54.5932 115.886 54.1062 116.031 53.6877 116.321C53.2731 116.607 52.9492 117.011 52.7157 117.534C52.4863 118.054 52.3716 118.663 52.3716 119.364C52.3716 120.08 52.4843 120.704 52.7097 121.235C52.9391 121.766 53.2611 122.179 53.6756 122.473C54.0942 122.766 54.5852 122.913 55.1486 122.913C55.5189 122.913 55.8549 122.849 56.1568 122.72C56.4586 122.591 56.7142 122.406 56.9235 122.165C57.1328 121.923 57.2817 121.634 57.3702 121.295L58.7949 121.295C58.7144 121.843 58.5152 122.336 58.1973 122.774C57.8834 123.209 57.4668 123.555 56.9476 123.813C56.4325 124.066 55.8328 124.193 55.1486 124.193ZM64.8147 124.193C63.9776 124.193 63.2431 123.994 62.6112 123.596C61.9834 123.197 61.4924 122.64 61.1382 121.923C60.7881 121.207 60.613 120.37 60.613 119.412C60.613 118.446 60.7881 117.603 61.1382 116.882C61.4924 116.162 61.9834 115.603 62.6112 115.204C63.2431 114.806 63.9776 114.607 64.8147 114.607C65.6518 114.607 66.3843 114.806 67.0122 115.204C67.644 115.603 68.135 116.162 68.4852 116.882C68.8393 117.603 69.0164 118.446 69.0164 119.412C69.0164 120.37 68.8393 121.207 68.4852 121.923C68.135 122.64 67.644 123.197 67.0122 123.596C66.3843 123.994 65.6518 124.193 64.8147 124.193ZM64.8147 122.913C65.4506 122.913 65.9738 122.75 66.3843 122.424C66.7948 122.098 67.0987 121.67 67.2959 121.138C67.4931 120.607 67.5917 120.032 67.5917 119.412C67.5917 118.792 67.4931 118.215 67.2959 117.679C67.0987 117.144 66.7948 116.711 66.3843 116.381C65.9738 116.051 65.4506 115.886 64.8147 115.886C64.1788 115.886 63.6556 116.051 63.2451 116.381C62.8346 116.711 62.5307 117.144 62.3335 117.679C62.1363 118.215 62.0377 118.792 62.0377 119.412C62.0377 120.032 62.1363 120.607 62.3335 121.138C62.5307 121.67 62.8346 122.098 63.2451 122.424C63.6556 122.75 64.1788 122.913 64.8147 122.913ZM79.8139 124.193C79.0412 124.193 78.359 123.998 77.7674 123.608C77.1757 123.213 76.7129 122.658 76.3789 121.941C76.0448 121.221 75.8778 120.37 75.8778 119.388C75.8778 118.414 76.0448 117.569 76.3789 116.852C76.7129 116.136 77.1778 115.583 77.7734 115.192C78.369 114.802 79.0573 114.607 79.838 114.607C80.4417 114.607 80.9186 114.707 81.2688 114.908C81.623 115.106 81.8926 115.331 82.0777 115.585C82.2669 115.834 82.4138 116.039 82.5184 116.2L82.6392 116.2L82.6392 111.636L84.0639 111.636L84.0639 124L82.6875 124L82.6875 122.575L82.5184 122.575C82.4138 122.744 82.2649 122.958 82.0717 123.215C81.8785 123.469 81.6028 123.696 81.2446 123.897C80.8864 124.095 80.4095 124.193 79.8139 124.193ZM80.0071 122.913C80.5786 122.913 81.0615 122.764 81.4559 122.467C81.8503 122.165 82.1502 121.748 82.3554 121.217C82.5607 120.682 82.6633 120.064 82.6633 119.364C82.6633 118.671 82.5627 118.066 82.3615 117.547C82.1602 117.023 81.8624 116.617 81.468 116.327C81.0736 116.033 80.5866 115.886 80.0071 115.886C79.4034 115.886 78.9003 116.041 78.4978 116.351C78.0994 116.657 77.7996 117.074 77.5983 117.601C77.4011 118.124 77.3025 118.712 77.3025 119.364C77.3025 120.024 77.4031 120.623 77.6044 121.163C77.8096 121.698 78.1115 122.125 78.5099 122.442C78.9124 122.756 79.4114 122.913 80.0071 122.913ZM90.9288 124.193C90.0354 124.193 89.2647 123.996 88.6167 123.602C87.9728 123.203 87.4757 122.648 87.1256 121.935C86.7795 121.219 86.6064 120.386 86.6064 119.436C86.6064 118.486 86.7795 117.649 87.1256 116.925C87.4757 116.196 87.9627 115.629 88.5865 115.222C89.2143 114.812 89.9468 114.607 90.7839 114.607C91.2669 114.607 91.7438 114.687 92.2147 114.848C92.6856 115.009 93.1142 115.271 93.5006 115.633C93.8869 115.991 94.1948 116.466 94.4242 117.058C94.6536 117.649 94.7683 118.378 94.7683 119.243L94.7683 119.847L87.6206 119.847L87.6206 118.615L93.3195 118.615C93.3195 118.092 93.2148 117.625 93.0055 117.214C92.8003 116.804 92.5065 116.48 92.1241 116.243C91.7458 116.005 91.2991 115.886 90.7839 115.886C90.2165 115.886 89.7255 116.027 89.3109 116.309C88.9004 116.587 88.5845 116.949 88.3631 117.396C88.1418 117.842 88.0311 118.321 88.0311 118.832L88.0311 119.653C88.0311 120.354 88.1518 120.947 88.3933 121.434C88.6388 121.917 88.9789 122.286 89.4136 122.539C89.8482 122.789 90.3533 122.913 90.9288 122.913C91.3031 122.913 91.6412 122.861 91.943 122.756C92.2489 122.648 92.5125 122.487 92.7339 122.273C92.9552 122.056 93.1263 121.786 93.247 121.464L94.6234 121.851C94.4786 122.318 94.2351 122.728 93.893 123.082C93.5509 123.433 93.1283 123.706 92.6252 123.903C92.1221 124.097 91.5567 124.193 90.9288 124.193ZM103.482 111.636L103.482 124L102.057 124L102.057 111.636L103.482 111.636ZM110.028 124.193C109.191 124.193 108.456 123.994 107.825 123.596C107.197 123.197 106.706 122.64 106.352 121.923C106.001 121.207 105.826 120.37 105.826 119.412C105.826 118.446 106.001 117.603 106.352 116.882C106.706 116.162 107.197 115.603 107.825 115.204C108.456 114.806 109.191 114.607 110.028 114.607C110.865 114.607 111.598 114.806 112.225 115.204C112.857 115.603 113.348 116.162 113.699 116.882C114.053 117.603 114.23 118.446 114.23 119.412C114.23 120.37 114.053 121.207 113.699 121.923C113.348 122.64 112.857 123.197 112.225 123.596C111.598 123.994 110.865 124.193 110.028 124.193ZM110.028 122.913C110.664 122.913 111.187 122.75 111.598 122.424C112.008 122.098 112.312 121.67 112.509 121.138C112.706 120.607 112.805 120.032 112.805 119.412C112.805 118.792 112.706 118.215 112.509 117.679C112.312 117.144 112.008 116.711 111.598 116.381C111.187 116.051 110.664 115.886 110.028 115.886C109.392 115.886 108.869 116.051 108.458 116.381C108.048 116.711 107.744 117.144 107.547 117.679C107.35 118.215 107.251 118.792 107.251 119.412C107.251 120.032 107.35 120.607 107.547 121.138C107.744 121.67 108.048 122.098 108.458 122.424C108.869 122.75 109.392 122.913 110.028 122.913ZM123.143 116.804L121.863 117.166C121.782 116.953 121.664 116.746 121.507 116.544C121.354 116.339 121.145 116.17 120.879 116.037C120.613 115.904 120.273 115.838 119.859 115.838C119.291 115.838 118.818 115.969 118.44 116.23C118.066 116.488 117.879 116.816 117.879 117.214C117.879 117.569 118.007 117.848 118.265 118.054C118.522 118.259 118.925 118.43 119.472 118.567L120.849 118.905C121.678 119.106 122.296 119.414 122.702 119.828C123.109 120.239 123.312 120.768 123.312 121.416C123.312 121.947 123.159 122.422 122.853 122.841C122.551 123.259 122.129 123.589 121.585 123.831C121.042 124.072 120.41 124.193 119.69 124.193C118.744 124.193 117.961 123.988 117.341 123.577C116.721 123.167 116.329 122.567 116.164 121.778L117.516 121.44C117.645 121.939 117.889 122.314 118.247 122.563C118.609 122.813 119.082 122.937 119.665 122.937C120.33 122.937 120.857 122.797 121.247 122.515C121.642 122.229 121.839 121.887 121.839 121.489C121.839 121.167 121.726 120.897 121.501 120.68C121.275 120.458 120.929 120.293 120.462 120.185L118.917 119.822C118.068 119.621 117.444 119.309 117.045 118.887C116.651 118.46 116.454 117.927 116.454 117.287C116.454 116.764 116.601 116.301 116.895 115.898C117.192 115.496 117.597 115.18 118.108 114.951C118.623 114.721 119.207 114.607 119.859 114.607C120.776 114.607 121.497 114.808 122.02 115.21C122.547 115.613 122.921 116.144 123.143 116.804ZM134.079 124.193C133.306 124.193 132.624 123.998 132.033 123.608C131.441 123.213 130.978 122.658 130.644 121.941C130.31 121.221 130.143 120.37 130.143 119.388C130.143 118.414 130.31 117.569 130.644 116.852C130.978 116.136 131.443 115.583 132.039 115.192C132.634 114.802 133.322 114.607 134.103 114.607C134.707 114.607 135.184 114.707 135.534 114.908C135.888 115.106 136.158 115.331 136.343 115.585C136.532 115.834 136.679 116.039 136.784 116.2L136.904 116.2L136.904 111.636L138.329 111.636L138.329 124L136.953 124L136.953 122.575L136.784 122.575C136.679 122.744 136.53 122.958 136.337 123.215C136.144 123.469 135.868 123.696 135.51 123.897C135.152 124.095 134.675 124.193 134.079 124.193ZM134.272 122.913C134.844 122.913 135.327 122.764 135.721 122.467C136.116 122.165 136.415 121.748 136.621 121.217C136.826 120.682 136.928 120.064 136.928 119.364C136.928 118.671 136.828 118.066 136.627 117.547C136.425 117.023 136.128 116.617 135.733 116.327C135.339 116.033 134.852 115.886 134.272 115.886C133.669 115.886 133.165 116.041 132.763 116.351C132.365 116.657 132.065 117.074 131.864 117.601C131.666 118.124 131.568 118.712 131.568 119.364C131.568 120.024 131.668 120.623 131.87 121.163C132.075 121.698 132.377 122.125 132.775 122.442C133.178 122.756 133.677 122.913 134.272 122.913ZM145.073 124.193C144.236 124.193 143.502 123.994 142.87 123.596C142.242 123.197 141.751 122.64 141.397 121.923C141.047 121.207 140.872 120.37 140.872 119.412C140.872 118.446 141.047 117.603 141.397 116.882C141.751 116.162 142.242 115.603 142.87 115.204C143.502 114.806 144.236 114.607 145.073 114.607C145.91 114.607 146.643 114.806 147.271 115.204C147.903 115.603 148.394 116.162 148.744 116.882C149.098 117.603 149.275 118.446 149.275 119.412C149.275 120.37 149.098 121.207 148.744 121.923C148.394 122.64 147.903 123.197 147.271 123.596C146.643 123.994 145.91 124.193 145.073 124.193ZM145.073 122.913C145.709 122.913 146.232 122.75 146.643 122.424C147.053 122.098 147.357 121.67 147.554 121.138C147.752 120.607 147.85 120.032 147.85 119.412C147.85 118.792 147.752 118.215 147.554 117.679C147.357 117.144 147.053 116.711 146.643 116.381C146.232 116.051 145.709 115.886 145.073 115.886C144.437 115.886 143.914 116.051 143.504 116.381C143.093 116.711 142.789 117.144 142.592 117.679C142.395 118.215 142.296 118.792 142.296 119.412C142.296 120.032 142.395 120.607 142.592 121.138C142.789 121.67 143.093 122.098 143.504 122.424C143.914 122.75 144.437 122.913 145.073 122.913ZM151.62 124L151.62 114.727L152.996 114.727L152.996 116.176L153.117 116.176C153.31 115.681 153.622 115.297 154.053 115.023C154.483 114.745 155 114.607 155.604 114.607C156.216 114.607 156.725 114.745 157.131 115.023C157.542 115.297 157.862 115.681 158.091 116.176L158.188 116.176C158.425 115.697 158.782 115.317 159.256 115.035C159.731 114.749 160.301 114.607 160.965 114.607C161.794 114.607 162.472 114.866 162.999 115.385C163.527 115.9 163.79 116.703 163.79 117.794L163.79 124L162.366 124L162.366 117.794C162.366 117.11 162.178 116.621 161.804 116.327C161.43 116.033 160.989 115.886 160.482 115.886C159.83 115.886 159.325 116.084 158.967 116.478C158.609 116.868 158.429 117.363 158.429 117.963L158.429 124L156.981 124L156.981 117.649C156.981 117.122 156.81 116.697 156.467 116.375C156.125 116.049 155.685 115.886 155.145 115.886C154.775 115.886 154.429 115.985 154.107 116.182C153.789 116.379 153.531 116.653 153.334 117.003C153.141 117.349 153.044 117.75 153.044 118.205L153.044 124L151.62 124ZM166.565 124L166.565 114.727L167.99 114.727L167.99 124L166.565 124ZM167.29 113.182C167.012 113.182 166.772 113.087 166.571 112.898C166.374 112.709 166.275 112.482 166.275 112.216C166.275 111.95 166.374 111.723 166.571 111.534C166.772 111.345 167.012 111.25 167.29 111.25C167.567 111.25 167.805 111.345 168.002 111.534C168.203 111.723 168.304 111.95 168.304 112.216C168.304 112.482 168.203 112.709 168.002 112.898C167.805 113.087 167.567 113.182 167.29 113.182ZM172.194 118.422L172.194 124L170.769 124L170.769 114.727L172.146 114.727L172.146 116.176L172.266 116.176C172.484 115.705 172.814 115.327 173.257 115.041C173.699 114.751 174.271 114.607 174.971 114.607C175.599 114.607 176.148 114.735 176.619 114.993C177.09 115.246 177.456 115.633 177.718 116.152C177.979 116.667 178.11 117.319 178.11 118.108L178.11 124L176.686 124L176.686 118.205C176.686 117.476 176.496 116.909 176.118 116.502C175.74 116.092 175.221 115.886 174.561 115.886C174.106 115.886 173.699 115.985 173.341 116.182C172.987 116.379 172.707 116.667 172.502 117.045C172.297 117.424 172.194 117.883 172.194 118.422ZM180.884 124L180.884 114.727L182.308 114.727L182.308 124L180.884 124ZM181.608 113.182C181.33 113.182 181.091 113.087 180.89 112.898C180.693 112.709 180.594 112.482 180.594 112.216C180.594 111.95 180.693 111.723 180.89 111.534C181.091 111.345 181.33 111.25 181.608 111.25C181.886 111.25 182.123 111.345 182.32 111.534C182.522 111.723 182.622 111.95 182.622 112.216C182.622 112.482 182.522 112.709 182.32 112.898C182.123 113.087 181.886 113.182 181.608 113.182ZM188.855 124.193C187.986 124.193 187.237 123.988 186.609 123.577C185.981 123.167 185.498 122.601 185.16 121.881C184.822 121.161 184.653 120.338 184.653 119.412C184.653 118.47 184.826 117.639 185.172 116.919C185.523 116.194 186.009 115.629 186.633 115.222C187.261 114.812 187.994 114.607 188.831 114.607C189.483 114.607 190.07 114.727 190.594 114.969C191.117 115.21 191.545 115.548 191.879 115.983C192.213 116.418 192.421 116.925 192.501 117.504L191.076 117.504C190.968 117.082 190.726 116.707 190.352 116.381C189.982 116.051 189.483 115.886 188.855 115.886C188.3 115.886 187.813 116.031 187.394 116.321C186.979 116.607 186.655 117.011 186.422 117.534C186.193 118.054 186.078 118.663 186.078 119.364C186.078 120.08 186.191 120.704 186.416 121.235C186.645 121.766 186.967 122.179 187.382 122.473C187.8 122.766 188.291 122.913 188.855 122.913C189.225 122.913 189.561 122.849 189.863 122.72C190.165 122.591 190.42 122.406 190.63 122.165C190.839 121.923 190.988 121.634 191.076 121.295L192.501 121.295C192.421 121.843 192.222 122.336 191.904 122.774C191.59 123.209 191.173 123.555 190.654 123.813C190.139 124.066 189.539 124.193 188.855 124.193ZM197.483 124.217C196.895 124.217 196.362 124.107 195.883 123.885C195.404 123.66 195.024 123.336 194.742 122.913C194.46 122.487 194.319 121.972 194.319 121.368C194.319 120.837 194.424 120.406 194.633 120.076C194.842 119.742 195.122 119.48 195.472 119.291C195.822 119.102 196.209 118.961 196.631 118.869C197.058 118.772 197.487 118.696 197.917 118.639C198.481 118.567 198.938 118.512 199.288 118.476C199.642 118.436 199.899 118.37 200.06 118.277C200.225 118.184 200.308 118.023 200.308 117.794L200.308 117.746C200.308 117.15 200.145 116.687 199.819 116.357C199.497 116.027 199.008 115.862 198.352 115.862C197.672 115.862 197.139 116.011 196.752 116.309C196.366 116.607 196.094 116.925 195.937 117.263L194.585 116.78C194.826 116.216 195.148 115.778 195.551 115.464C195.957 115.146 196.4 114.924 196.879 114.8C197.362 114.671 197.837 114.607 198.304 114.607C198.601 114.607 198.944 114.643 199.33 114.715C199.72 114.784 200.097 114.926 200.459 115.144C200.825 115.361 201.129 115.689 201.37 116.128C201.612 116.567 201.733 117.154 201.733 117.891L201.733 124L200.308 124L200.308 122.744L200.235 122.744C200.139 122.946 199.978 123.161 199.753 123.39C199.527 123.62 199.227 123.815 198.853 123.976C198.479 124.137 198.022 124.217 197.483 124.217ZM197.7 122.937C198.263 122.937 198.738 122.827 199.125 122.605C199.515 122.384 199.809 122.098 200.006 121.748C200.207 121.398 200.308 121.03 200.308 120.643L200.308 119.339C200.248 119.412 200.115 119.478 199.909 119.539C199.708 119.595 199.475 119.645 199.209 119.69C198.948 119.73 198.692 119.766 198.443 119.798C198.197 119.826 197.998 119.851 197.845 119.871C197.475 119.919 197.128 119.998 196.807 120.106C196.489 120.211 196.231 120.37 196.034 120.583C195.841 120.792 195.744 121.078 195.744 121.44C195.744 121.935 195.927 122.31 196.293 122.563C196.664 122.813 197.133 122.937 197.7 122.937ZM205.928 118.422L205.928 124L204.503 124L204.503 114.727L205.879 114.727L205.879 116.176L206 116.176C206.218 115.705 206.548 115.327 206.99 115.041C207.433 114.751 208.004 114.607 208.705 114.607C209.333 114.607 209.882 114.735 210.353 114.993C210.824 115.246 211.19 115.633 211.452 116.152C211.713 116.667 211.844 117.319 211.844 118.108L211.844 124L210.419 124L210.419 118.205C210.419 117.476 210.23 116.909 209.852 116.502C209.473 116.092 208.954 115.886 208.294 115.886C207.839 115.886 207.433 115.985 207.075 116.182C206.721 116.379 206.441 116.667 206.236 117.045C206.03 117.424 205.928 117.883 205.928 118.422ZM218.384 124.193C217.547 124.193 216.813 123.994 216.181 123.596C215.553 123.197 215.062 122.64 214.708 121.923C214.358 121.207 214.183 120.37 214.183 119.412C214.183 118.446 214.358 117.603 214.708 116.882C215.062 116.162 215.553 115.603 216.181 115.204C216.813 114.806 217.547 114.607 218.384 114.607C219.222 114.607 219.954 114.806 220.582 115.204C221.214 115.603 221.705 116.162 222.055 116.882C222.409 117.603 222.586 118.446 222.586 119.412C222.586 120.37 222.409 121.207 222.055 121.923C221.705 122.64 221.214 123.197 220.582 123.596C219.954 123.994 219.222 124.193 218.384 124.193ZM218.384 122.913C219.02 122.913 219.544 122.75 219.954 122.424C220.365 122.098 220.668 121.67 220.866 121.138C221.063 120.607 221.161 120.032 221.161 119.412C221.161 118.792 221.063 118.215 220.866 117.679C220.668 117.144 220.365 116.711 219.954 116.381C219.544 116.051 219.02 115.886 218.384 115.886C217.749 115.886 217.225 116.051 216.815 116.381C216.404 116.711 216.1 117.144 215.903 117.679C215.706 118.215 215.607 118.792 215.607 119.412C215.607 120.032 215.706 120.607 215.903 121.138C216.1 121.67 216.404 122.098 216.815 122.424C217.225 122.75 217.749 122.913 218.384 122.913ZM231.499 116.804L230.219 117.166C230.139 116.953 230.02 116.746 229.863 116.544C229.71 116.339 229.501 116.17 229.235 116.037C228.97 115.904 228.63 115.838 228.215 115.838C227.648 115.838 227.175 115.969 226.796 116.23C226.422 116.488 226.235 116.816 226.235 117.214C226.235 117.569 226.364 117.848 226.621 118.054C226.879 118.259 227.281 118.43 227.829 118.567L229.205 118.905C230.034 119.106 230.652 119.414 231.058 119.828C231.465 120.239 231.668 120.768 231.668 121.416C231.668 121.947 231.515 122.422 231.209 122.841C230.907 123.259 230.485 123.589 229.942 123.831C229.398 124.072 228.766 124.193 228.046 124.193C227.1 124.193 226.317 123.988 225.698 123.577C225.078 123.167 224.685 122.567 224.52 121.778L225.873 121.44C226.001 121.939 226.245 122.314 226.603 122.563C226.965 122.813 227.438 122.937 228.022 122.937C228.686 122.937 229.213 122.797 229.604 122.515C229.998 122.229 230.195 121.887 230.195 121.489C230.195 121.167 230.082 120.897 229.857 120.68C229.632 120.458 229.286 120.293 228.819 120.185L227.273 119.822C226.424 119.621 225.8 119.309 225.402 118.887C225.007 118.46 224.81 117.927 224.81 117.287C224.81 116.764 224.957 116.301 225.251 115.898C225.549 115.496 225.953 115.18 226.464 114.951C226.979 114.721 227.563 114.607 228.215 114.607C229.133 114.607 229.853 114.808 230.376 115.21C230.903 115.613 231.278 116.144 231.499 116.804Z" fill="white"/>
</svg>
